<svg width="629" height="851" viewBox="0 0 629 851" fill="none" xmlns="http://www.w3.org/2000/svg">
<path d="M580.548 317.273C592.12 239.836 533.135 198.207 452.482 170.437L478.645 65.5383L414.748 49.6252L389.277 151.76C372.502 147.577 355.254 143.63 338.116 139.72L363.769 36.913L299.927 21L273.746 125.862C259.846 122.698 246.201 119.57 232.955 116.278L233.028 115.951L144.934 93.9635L127.941 162.162C127.941 162.162 175.336 173.019 174.335 173.692C200.207 180.148 204.901 197.262 204.1 210.829L174.299 330.331C176.082 330.786 178.392 331.44 180.939 332.459L174.208 330.786L132.416 498.19C129.251 506.047 121.227 517.832 103.143 513.358C103.779 514.285 56.7119 501.773 56.7119 501.773L25 574.882L108.146 595.596C123.611 599.47 138.766 603.525 153.667 607.345L127.231 713.462L191.037 729.375L217.236 624.403C234.647 629.132 251.568 633.497 268.124 637.607L242.034 742.087L305.913 758L332.348 652.101C441.275 672.706 523.202 664.395 557.642 565.934C585.424 486.642 556.278 440.904 498.967 411.06C540.704 401.403 572.161 373.96 580.548 317.273ZM434.579 521.851C414.821 601.143 281.278 558.296 237.959 547.53L273.036 406.968C316.338 417.771 455.157 439.158 434.579 521.851ZM454.32 316.127C436.308 388.254 325.144 351.609 289.065 342.625L320.868 215.139C356.946 224.123 473.096 240.891 454.32 316.127Z" fill="#F7931A"/>
</svg>
