<svg width="629" height="822" viewBox="0 0 629 822" fill="none" xmlns="http://www.w3.org/2000/svg">
<path d="M584.528 355.695C596.265 277.102 536.434 234.852 454.622 206.667L481.16 100.203L416.346 84.0525L390.509 187.711C373.493 183.466 355.998 179.461 338.613 175.492L364.635 71.1505L299.876 55L273.319 161.427C259.219 158.216 245.378 155.041 231.942 151.7L232.016 151.368L142.656 129.052L125.419 198.269C125.419 198.269 173.495 209.288 172.48 209.971C198.723 216.524 203.484 233.892 202.672 247.662L172.443 368.948C174.251 369.409 176.595 370.074 179.179 371.107L172.351 369.409L129.959 539.313C126.748 547.286 118.609 559.247 100.265 554.706C100.911 555.648 53.1673 542.949 53.1673 542.949L21 617.149L105.34 638.172C121.027 642.104 136.4 646.22 151.515 650.096L124.699 757.797L189.422 773.948L215.997 667.409C233.659 672.208 250.822 676.638 267.616 680.81L241.151 786.849L305.947 803L332.763 695.521C443.254 716.433 526.357 707.998 561.293 608.068C589.474 527.592 559.908 481.171 501.775 450.882C544.111 441.081 576.02 413.228 584.528 355.695ZM436.462 563.326C416.42 643.802 280.959 600.316 237.017 589.389L272.599 446.729C316.522 457.693 457.335 479.399 436.462 563.326ZM456.486 354.532C438.215 427.736 325.454 390.543 288.858 381.425L321.117 252.036C357.714 261.155 475.532 278.173 456.486 354.532Z" fill="#F7931A"/>
</svg>
